<svg id="visual" viewBox="0 0 900 200" width="900" height="200" xmlns="http://www.w3.org/2000/svg" xmlns:xlink="http://www.w3.org/1999/xlink" version="1.1"><path d="M0 81L18.8 93.8C37.7 106.7 75.3 132.3 112.8 134.3C150.3 136.3 187.7 114.7 225.2 110.5C262.7 106.3 300.3 119.7 337.8 126C375.3 132.3 412.7 131.7 450.2 121.3C487.7 111 525.3 91 562.8 86.2C600.3 81.3 637.7 91.7 675.2 91C712.7 90.3 750.3 78.7 787.8 74.8C825.3 71 862.7 75 881.3 77L900 79L900 201L881.3 201C862.7 201 825.3 201 787.8 201C750.3 201 712.7 201 675.2 201C637.7 201 600.3 201 562.8 201C525.3 201 487.7 201 450.2 201C412.7 201 375.3 201 337.8 201C300.3 201 262.7 201 225.2 201C187.7 201 150.3 201 112.8 201C75.3 201 37.7 201 18.8 201L0 201Z" fill="#191825" stroke-linecap="round" stroke-linejoin="miter"></path></svg>