<svg id="visual" viewBox="0 0 500 100" width="500" height="100" xmlns="http://www.w3.org/2000/svg" xmlns:xlink="http://www.w3.org/1999/xlink" version="1.1"><path d="M0 24L16.7 30.3C33.3 36.7 66.7 49.3 100 50C133.3 50.7 166.7 39.3 200 34C233.3 28.7 266.7 29.3 300 38.3C333.3 47.3 366.7 64.7 400 64.2C433.3 63.7 466.7 45.3 483.3 36.2L500 27L500 101L483.3 101C466.7 101 433.3 101 400 101C366.7 101 333.3 101 300 101C266.7 101 233.3 101 200 101C166.7 101 133.3 101 100 101C66.7 101 33.3 101 16.7 101L0 101Z" fill="#191825" stroke-linecap="round" stroke-linejoin="miter"></path></svg>