<svg id="visual" viewBox="0 0 2000 200" width="2000" height="200" xmlns="http://www.w3.org/2000/svg" xmlns:xlink="http://www.w3.org/1999/xlink" version="1.1"><path d="M0 103L47.7 97.2C95.3 91.3 190.7 79.7 285.8 87.8C381 96 476 124 571.2 123.3C666.3 122.7 761.7 93.3 857 90.2C952.3 87 1047.7 110 1143 125.5C1238.3 141 1333.7 149 1428.8 140.5C1524 132 1619 107 1714.2 102C1809.3 97 1904.7 112 1952.3 119.5L2000 127L2000 201L1952.3 201C1904.7 201 1809.3 201 1714.2 201C1619 201 1524 201 1428.8 201C1333.7 201 1238.3 201 1143 201C1047.7 201 952.3 201 857 201C761.7 201 666.3 201 571.2 201C476 201 381 201 285.8 201C190.7 201 95.3 201 47.7 201L0 201Z" fill="#191825" stroke-linecap="round" stroke-linejoin="miter"></path></svg>