<svg id="visual" viewBox="0 0 4000 300" width="4000" height="300" xmlns="http://www.w3.org/2000/svg" xmlns:xlink="http://www.w3.org/1999/xlink" version="1.1"><path d="M0 72L60.7 74C121.3 76 242.7 80 363.8 107.8C485 135.7 606 187.3 727.2 187.5C848.3 187.7 969.7 136.3 1091 135.8C1212.3 135.3 1333.7 185.7 1454.8 204.7C1576 223.7 1697 211.3 1818.2 190.8C1939.3 170.3 2060.7 141.7 2181.8 130.8C2303 120 2424 127 2545.2 129.8C2666.3 132.7 2787.7 131.3 2909 147.8C3030.3 164.3 3151.7 198.7 3272.8 187.8C3394 177 3515 121 3636.2 93.3C3757.3 65.7 3878.7 66.3 3939.3 66.7L4000 67L4000 301L3939.3 301C3878.7 301 3757.3 301 3636.2 301C3515 301 3394 301 3272.8 301C3151.7 301 3030.3 301 2909 301C2787.7 301 2666.3 301 2545.2 301C2424 301 2303 301 2181.8 301C2060.7 301 1939.3 301 1818.2 301C1697 301 1576 301 1454.8 301C1333.7 301 1212.3 301 1091 301C969.7 301 848.3 301 727.2 301C606 301 485 301 363.8 301C242.7 301 121.3 301 60.7 301L0 301Z" fill="#191825" stroke-linecap="round" stroke-linejoin="miter"></path></svg>