<svg id="visual" viewBox="0 0 500 100" width="500" height="100" xmlns="http://www.w3.org/2000/svg" xmlns:xlink="http://www.w3.org/1999/xlink" version="1.1"><path d="M0 46L16.7 44C33.3 42 66.7 38 100 43.3C133.3 48.7 166.7 63.3 200 68.2C233.3 73 266.7 68 300 58.8C333.3 49.7 366.7 36.3 400 31.8C433.3 27.3 466.7 31.7 483.3 33.8L500 36L500 0L483.3 0C466.7 0 433.3 0 400 0C366.7 0 333.3 0 300 0C266.7 0 233.3 0 200 0C166.7 0 133.3 0 100 0C66.7 0 33.3 0 16.7 0L0 0Z" fill="#191825" stroke-linecap="round" stroke-linejoin="miter"></path></svg>