<?xml version="1.0" encoding="UTF-8" standalone="no"?>
<!-- Created with Inkscape (http://www.inkscape.org/) -->

<svg
   width="210mm"
   height="297mm"
   viewBox="0 0 210 297"
   version="1.1"
   id="svg1"
   inkscape:version="1.3 (0e150ed6c4, 2023-07-21)"
   sodipodi:docname="wave01.svg"
   xmlns:inkscape="http://www.inkscape.org/namespaces/inkscape"
   xmlns:sodipodi="http://sodipodi.sourceforge.net/DTD/sodipodi-0.dtd"
   xmlns="http://www.w3.org/2000/svg"
   xmlns:svg="http://www.w3.org/2000/svg">
  <sodipodi:namedview
     id="namedview1"
     pagecolor="#505050"
     bordercolor="#eeeeee"
     borderopacity="1"
     inkscape:showpageshadow="0"
     inkscape:pageopacity="0"
     inkscape:pagecheckerboard="0"
     inkscape:deskcolor="#505050"
     inkscape:document-units="mm"
     inkscape:zoom="0.54236816"
     inkscape:cx="279.33056"
     inkscape:cy="778.99115"
     inkscape:window-width="1920"
     inkscape:window-height="1057"
     inkscape:window-x="-8"
     inkscape:window-y="-8"
     inkscape:window-maximized="1"
     inkscape:current-layer="layer1" />
  <defs
     id="defs1" />
  <g
     inkscape:label="Layer 1"
     inkscape:groupmode="layer"
     id="layer1">
    <path
       style="fill:#191825;fill-opacity:1;stroke-width:0.330571"
       d="m 30.692732,237.42875 c -14.581433,-11.82487 -1.840066,-33.43204 -1e-6,-50.44621 2.000225,-18.49508 -14.746403,-40.3712 -12.592421,-58.85393 2.308042,-19.80469 21.537831,-34.358082 26.51036,-53.809326 4.668474,-18.261847 -2.808359,-35.867841 16.568974,-44.841082 20.791618,-9.628169 47.068926,-4.57412 69.589696,1.68154 33.1923,9.21992 48.04501,15.218153 54.34624,44.28057 5.58091,25.740158 -14.23535,50.244178 -17.89449,76.229868 -3.02912,21.51152 15.03052,54.84743 5.96482,75.10882 -8.91267,19.91941 -24.35284,18.79341 -49.04415,22.98108 -33.305419,5.64863 -68.930895,7.55174 -93.449028,-12.33133 z"
       id="path1"
       sodipodi:nodetypes="sssssssssss" />
  </g>
</svg>
