<svg id="visual" viewBox="0 0 900 200" width="900" height="200" xmlns="http://www.w3.org/2000/svg" xmlns:xlink="http://www.w3.org/1999/xlink" version="1.1"><path d="M0 125L18.8 113.2C37.7 101.3 75.3 77.7 112.8 67.5C150.3 57.3 187.7 60.7 225.2 76.3C262.7 92 300.3 120 337.8 119.8C375.3 119.7 412.7 91.3 450.2 77.5C487.7 63.7 525.3 64.3 562.8 77C600.3 89.7 637.7 114.3 675.2 119.8C712.7 125.3 750.3 111.7 787.8 101.5C825.3 91.3 862.7 84.7 881.3 81.3L900 78L900 0L881.3 0C862.7 0 825.3 0 787.8 0C750.3 0 712.7 0 675.2 0C637.7 0 600.3 0 562.8 0C525.3 0 487.7 0 450.2 0C412.7 0 375.3 0 337.8 0C300.3 0 262.7 0 225.2 0C187.7 0 150.3 0 112.8 0C75.3 0 37.7 0 18.8 0L0 0Z" fill="#191825" stroke-linecap="round" stroke-linejoin="miter"></path></svg>