<svg id="visual" viewBox="0 0 4000 300" width="4000" height="300" xmlns="http://www.w3.org/2000/svg" xmlns:xlink="http://www.w3.org/1999/xlink" version="1.1"><path d="M0 205L60.7 194.2C121.3 183.3 242.7 161.7 363.8 156.3C485 151 606 162 727.2 162.2C848.3 162.3 969.7 151.7 1091 162.3C1212.3 173 1333.7 205 1454.8 199.7C1576 194.3 1697 151.7 1818.2 149.5C1939.3 147.3 2060.7 185.7 2181.8 185.2C2303 184.7 2424 145.3 2545.2 123.3C2666.3 101.3 2787.7 96.7 2909 99.2C3030.3 101.7 3151.7 111.3 3272.8 135.7C3394 160 3515 199 3636.2 209.3C3757.3 219.7 3878.7 201.3 3939.3 192.2L4000 183L4000 0L3939.3 0C3878.7 0 3757.3 0 3636.2 0C3515 0 3394 0 3272.8 0C3151.7 0 3030.3 0 2909 0C2787.7 0 2666.3 0 2545.2 0C2424 0 2303 0 2181.8 0C2060.7 0 1939.3 0 1818.2 0C1697 0 1576 0 1454.8 0C1333.7 0 1212.3 0 1091 0C969.7 0 848.3 0 727.2 0C606 0 485 0 363.8 0C242.7 0 121.3 0 60.7 0L0 0Z" fill="#191825" stroke-linecap="round" stroke-linejoin="miter"></path></svg>