<?xml version="1.0" encoding="UTF-8" standalone="no"?>
<!-- Created with Inkscape (http://www.inkscape.org/) -->

<svg
   width="210mm"
   height="297mm"
   viewBox="0 0 210 297"
   version="1.1"
   id="svg1"
   inkscape:version="1.3.1 (91b66b0783, 2023-11-16)"
   sodipodi:docname="waves05.svg"
   xmlns:inkscape="http://www.inkscape.org/namespaces/inkscape"
   xmlns:sodipodi="http://sodipodi.sourceforge.net/DTD/sodipodi-0.dtd"
   xmlns="http://www.w3.org/2000/svg"
   xmlns:svg="http://www.w3.org/2000/svg">
  <sodipodi:namedview
     id="namedview1"
     pagecolor="#ffffff"
     bordercolor="#000000"
     borderopacity="0.25"
     inkscape:showpageshadow="2"
     inkscape:pageopacity="0.0"
     inkscape:pagecheckerboard="0"
     inkscape:deskcolor="#d1d1d1"
     inkscape:document-units="mm"
     inkscape:zoom="0.54236816"
     inkscape:cx="637.02117"
     inkscape:cy="570.64559"
     inkscape:window-width="1920"
     inkscape:window-height="1057"
     inkscape:window-x="-8"
     inkscape:window-y="-8"
     inkscape:window-maximized="1"
     inkscape:current-layer="layer1" />
  <defs
     id="defs1">
    <inkscape:path-effect
       effect="bspline"
       id="path-effect1"
       is_visible="true"
       lpeversion="1.3"
       weight="33.333333"
       steps="2"
       helper_size="0"
       apply_no_weight="true"
       apply_with_weight="true"
       only_selected="false"
       uniform="false" />
  </defs>
  <g
     inkscape:label="Layer 1"
     inkscape:groupmode="layer"
     id="layer1">
    <path
       style="fill:#191825;fill-opacity:1;stroke-width:0.264583"
       d="M -35.012195,121.4216 C -19.547038,94.400696 1.609756,85.317072 21.846884,83.017465 c 20.237127,-2.299607 39.553813,2.184624 51.914494,2.989473 12.360681,0.80485 17.764753,-2.069656 24.203853,-4.886757 6.439099,-2.8171 13.912819,-5.576627 25.181259,-3.219411 11.26844,2.357215 26.33086,9.830935 40.47385,11.958081 14.14299,2.127146 27.36572,-1.092301 40.41637,-3.104504 13.05065,-2.012204 25.92844,-2.817066 33.17236,14.948103 7.24392,17.76517 8.85364,54.09894 8.79614,80.77507 -0.0575,26.67613 -1.78221,43.69321 -6.26661,55.65147 -4.48439,11.95825 -11.72815,18.85707 -22.88161,18.857 -11.15346,-7e-5 -26.21588,-6.89888 -38.86406,-6.20891 -12.64819,0.68998 -22.88143,8.96856 -34.89725,15.86757 -12.01582,6.89902 -25.81345,12.41807 -40.81884,10.11832 -15.005388,-2.29975 -31.217608,-12.41802 -44.383213,-13.68275 -13.165605,-1.26474 -23.283866,6.32396 -44.096031,3.67923 -20.8121642,-2.64473 -52.316759,-15.52252 -63.182516,-44.44109 -10.865756,-28.91856 -1.092432,-73.87585 14.372725,-100.89676 z"
       id="path1"
       inkscape:path-effect="#path-effect1"
       inkscape:original-d="M -40.703833,103.48432 C -19.547038,94.400697 1.6097561,85.317072 22.76655,76.233448 c 19.317461,4.484412 38.634147,8.968642 57.95122,13.452961 5.404289,-2.874621 10.808361,-5.749128 16.212542,-8.623691 7.474018,-2.759639 14.947738,-5.519166 22.421608,-8.278746 15.06301,7.474016 30.12543,14.947735 45.18815,22.421601 13.22326,-3.219575 26.44599,-6.439025 39.66899,-9.658535 12.8783,-0.804895 25.75609,-1.609757 38.63414,-2.414636 1.60979,36.335218 3.21951,72.668988 4.82927,109.003488 -1.72477,17.01776 -3.44948,34.03484 -5.17421,51.05226 -7.24405,6.89909 -14.48781,13.79791 -21.73171,20.69687 -15.06302,-6.8991 -30.12544,-13.79791 -45.18816,-20.69687 -10.23365,8.27891 -20.46689,16.55749 -30.70034,24.83624 -13.79819,5.51927 -27.59582,11.03832 -41.39373,16.5575 -16.212869,-10.11867 -32.425088,-20.23694 -48.63763,-30.35541 -10.118669,7.589 -20.236934,15.17769 -30.355401,22.76655 -31.5058564,-12.87831 -63.010452,-25.7561 -94.515678,-38.63415 9.773714,-44.95908 19.547038,-89.91637 29.320556,-134.87456 z"
       transform="matrix(0.6747836,0,0,0.66874331,39.515534,91.855126)" />
  </g>
</svg>
