<?xml version="1.0" encoding="UTF-8" standalone="no"?>
<!-- Created with Inkscape (http://www.inkscape.org/) -->

<svg
   width="210mm"
   height="297mm"
   viewBox="0 0 210 297"
   version="1.1"
   id="svg1"
   inkscape:version="1.3 (0e150ed6c4, 2023-07-21)"
   sodipodi:docname="wave04.svg"
   xmlns:inkscape="http://www.inkscape.org/namespaces/inkscape"
   xmlns:sodipodi="http://sodipodi.sourceforge.net/DTD/sodipodi-0.dtd"
   xmlns="http://www.w3.org/2000/svg"
   xmlns:svg="http://www.w3.org/2000/svg">
  <sodipodi:namedview
     id="namedview1"
     pagecolor="#505050"
     bordercolor="#eeeeee"
     borderopacity="1"
     inkscape:showpageshadow="0"
     inkscape:pageopacity="0"
     inkscape:pagecheckerboard="0"
     inkscape:deskcolor="#505050"
     inkscape:document-units="mm"
     inkscape:zoom="0.76702441"
     inkscape:cx="410.67793"
     inkscape:cy="587.33463"
     inkscape:window-width="1920"
     inkscape:window-height="1057"
     inkscape:window-x="-8"
     inkscape:window-y="-8"
     inkscape:window-maximized="1"
     inkscape:current-layer="layer1" />
  <defs
     id="defs1">
    <inkscape:path-effect
       effect="bspline"
       id="path-effect1"
       is_visible="true"
       lpeversion="1.3"
       weight="33.333333"
       steps="2"
       helper_size="0"
       apply_no_weight="true"
       apply_with_weight="true"
       only_selected="false"
       uniform="false" />
    <inkscape:path-effect
       effect="bspline"
       id="path-effect1-7"
       is_visible="true"
       lpeversion="1.3"
       weight="33.333333"
       steps="2"
       helper_size="0"
       apply_no_weight="true"
       apply_with_weight="true"
       only_selected="false"
       uniform="false" />
  </defs>
  <g
     inkscape:label="Layer 1"
     inkscape:groupmode="layer"
     id="layer1">
    <path
       style="fill:#191825;stroke-width:0.264583"
       d="m -29.205574,92.3885 c 6.209059,28.11324 8.393728,51.68467 17.822465,65.88507 9.4287377,14.20039 26.100878,19.02956 42.773519,17.30474 16.672641,-1.72482 33.344782,-10.0034 50.822315,-9.19842 17.477532,0.80498 35.759395,10.69328 55.306645,11.38309 19.54725,0.68981 40.35868,-7.81873 57.31874,-7.01375 16.96006,0.80498 30.06781,10.92324 41.68115,0.34453 11.61335,-10.57871 21.73161,-41.85334 22.47891,-74.16378 0.7473,-32.310438 -7.87622,-65.65472 -17.47737,-86.121694 -9.60115,-20.4669736 -20.17934,-28.055673 -65.36829,-30.987711 -45.18895,-2.932039 -124.985264,-1.207335 -169.4261207,2.759626 -44.4408563,3.966961 -53.5242983,10.1758969 -52.9492823,29.608279 0.575016,19.432381 10.80826,52.086779 17.017319,80.20002 z"
       id="path1"
       inkscape:path-effect="#path-effect1"
       inkscape:original-d="m -25.181184,96.930312 c 2.184669,23.571428 4.369338,47.142858 6.554007,70.714288 16.6728066,4.82936 33.344947,9.65853 50.01742,14.4878 16.672808,-8.27891 33.344948,-16.55749 50.017423,-24.83623 18.282594,9.88869 36.564454,19.777 54.846684,29.6655 20.81227,-8.50888 41.6237,-17.01742 62.43554,-25.52613 13.10828,10.11867 26.21603,20.23693 39.32405,30.3554 10.11866,-31.27589 20.23693,-62.55052 30.35539,-93.825784 -8.62386,-33.345615 -17.24738,-66.689896 -25.87107,-100.0348424 -10.57861,-7.5890019 -21.1568,-15.1777006 -31.7352,-22.7665506 -79.7995,1.724774 -159.595814,3.449478 -239.393723,5.174216 -9.083804,6.209184 -18.167246,12.4181186 -27.250868,18.6271778 10.233652,32.6557052 20.466896,65.3101032 30.700347,97.9651552 z"
       transform="translate(-1.3977413,84.512195)" />
    <path
       style="fill:#191825;stroke-width:0.264583"
       d="m -29.205574,92.3885 c 6.209059,28.11324 8.393728,51.68467 17.822465,65.88507 9.4287377,14.20039 26.100878,19.02956 42.773519,17.30474 16.672641,-1.72482 33.344782,-10.0034 50.822315,-9.19842 17.477532,0.80498 35.759395,10.69328 55.306645,11.38309 19.54725,0.68981 40.35868,-7.81873 57.31874,-7.01375 16.96006,0.80498 30.06781,10.92324 41.68115,0.34453 11.61335,-10.57871 21.73161,-41.85334 22.47891,-74.16378 0.7473,-32.310438 -7.87622,-65.65472 -17.47737,-86.121694 -9.60115,-20.4669736 -20.17934,-28.055673 -65.36829,-30.987711 -45.18895,-2.932039 -124.985264,-1.207335 -169.4261207,2.759626 -44.4408563,3.966961 -53.5242983,10.1758969 -52.9492823,29.608279 0.575016,19.432381 10.80826,52.086779 17.017319,80.20002 z"
       id="path1-5"
       transform="rotate(177.73703,105.32616,112.19648)"
       inkscape:original-d="m -25.181184,96.930312 c 2.184669,23.571428 4.369338,47.142858 6.554007,70.714288 16.6728066,4.82936 33.344947,9.65853 50.01742,14.4878 16.672808,-8.27891 33.344948,-16.55749 50.017423,-24.83623 18.282594,9.88869 36.564454,19.777 54.846684,29.6655 20.81227,-8.50888 41.6237,-17.01742 62.43554,-25.52613 13.10828,10.11867 26.21603,20.23693 39.32405,30.3554 10.11866,-31.27589 20.23693,-62.55052 30.35539,-93.825784 -8.62386,-33.345615 -17.24738,-66.689896 -25.87107,-100.0348424 -10.57861,-7.5890019 -21.1568,-15.1777006 -31.7352,-22.7665506 -79.7995,1.724774 -159.595814,3.449478 -239.393723,5.174216 -9.083804,6.209184 -18.167246,12.4181186 -27.250868,18.6271778 10.233652,32.6557052 20.466896,65.3101032 30.700347,97.9651552 z"
       inkscape:path-effect="#path-effect1-7" />
  </g>
</svg>
